<svg id="Layer_1" viewBox="0 0 64 64" xmlns="http://www.w3.org/2000/svg" data-name="Layer 1"><path d="m46.0722656 25.6606445c-.390625.390625-.390625 1.0239258 0 1.4140625 1.3154297 1.315918 2.0400391 3.0649414 2.0400391 4.925293s-.7246094 3.609375-2.0400391 4.925293c-.390625.3901367-.390625 1.0234375 0 1.4140625.1953125.1953125.4511719.2929688.7070312.2929688s.5117188-.0976562.7070312-.2929688c1.6933594-1.6933594 2.6259766-3.9448242 2.6259766-6.3393555s-.9326172-4.6459961-2.6259766-6.3393555c-.390625-.390625-1.0234375-.390625-1.4140625 0z"/><path d="m50.9248047 20.8085938c-.390625.390625-.390625 1.0234375 0 1.4140625 5.390625 5.3911133 5.390625 14.1635742 0 19.5546875-.390625.390625-.390625 1.0234375 0 1.4140625.1953125.1953125.4511719.2929688.7070312.2929688s.5117188-.0976562.7070312-.2929688c6.1708984-6.1708984 6.1708984-16.2119141 0-22.3828125-.390625-.390625-1.0234375-.390625-1.4140625 0z"/><path d="m17.9277344 25.6606445c-.390625-.390625-1.0234375-.390625-1.4140625 0-1.6933594 1.6933594-2.6259766 3.9448242-2.6259766 6.3393555s.9326172 4.6459961 2.6259766 6.3393555c.1953125.1953125.4511719.2929688.7070312.2929688s.5117188-.0976562.7070312-.2929688c.390625-.390625.390625-1.0239258 0-1.4140625-1.3154297-1.315918-2.0400391-3.0649414-2.0400391-4.925293s.7246094-3.609375 2.0400391-4.925293c.390625-.3901367.390625-1.0234375 0-1.4140625z"/><path d="m13.0751953 20.8085938c-.390625-.390625-1.0234375-.390625-1.4140625 0-6.1708984 6.1708984-6.1708984 16.2119141 0 22.3828125.1953125.1953125.4511719.2929688.7070312.2929688s.5117188-.0976562.7070312-.2929688c.390625-.390625.390625-1.0234375 0-1.4140625-5.390625-5.3911133-5.390625-14.1635742 0-19.5546875.390625-.390625.390625-1.0234375 0-1.4140625z"/><path d="m39.2626953 2h-14.5253906c-.2744141 0-.5361328.112793-.7255859.3115234-.1884766.1987305-.2871094.4663086-.2734375.7402344l2.0253906 38.9492188c.0283203.5317383.4667969.9482422.9990234.9482422h10.4746094c.5322266 0 .9707031-.4165039.9990234-.9482422l2.0253907-38.9492188c.0136719-.2739258-.0849609-.5415039-.2734375-.7402344-.1894531-.1987305-.4511719-.3115234-.7255859-.3115234zm-2.9746094 38.9492188h-8.5761719l-1.9208984-36.9492188h12.4179688l-1.9208984 36.9492188z"/><path d="m32 47.3198242c-4.046875 0-7.3398438 3.2924805-7.3398438 7.3398438s3.2929688 7.340332 7.3398438 7.340332 7.3398438-3.2929688 7.3398438-7.340332-3.2929688-7.3398438-7.3398438-7.3398438zm0 12.6801758c-2.9443359 0-5.3398438-2.3955078-5.3398438-5.340332 0-2.9443359 2.3955078-5.3398438 5.3398438-5.3398438s5.3398438 2.3955078 5.3398438 5.3398438c0 2.9448242-2.3955078 5.340332-5.3398438 5.340332z"/></svg>